<svg xmlns="http://www.w3.org/2000/svg" xmlns:xlink="http://www.w3.org/1999/xlink" viewBox="0 0 100 125" version="1.1" x="0px" y="0px"><title>Upload s26.3</title><desc>Created with Sketch.</desc><g stroke="none" stroke-width="1" fill="none" fill-rule="evenodd"><g fill="#000000"><path d="M68.3847763,62.3847763 C67.6037277,63.1658249 66.3373978,63.1658249 65.5563492,62.3847763 C64.7753006,61.6037277 64.7753006,60.3373978 65.5563492,59.5563492 C74.1478836,50.9648148 74.1478836,37.0351852 65.5563492,28.4436508 C56.9648148,19.8521164 43.0351852,19.8521164 34.4436508,28.4436508 C25.8521164,37.0351852 25.8521164,50.9648148 34.4436508,59.5563492 C35.2246994,60.3373978 35.2246994,61.6037277 34.4436508,62.3847763 C33.6626022,63.1658249 32.3962723,63.1658249 31.6152237,62.3847763 C21.4615921,52.2311447 21.4615921,35.7688553 31.6152237,25.6152237 C41.7688553,15.4615921 58.2311447,15.4615921 68.3847763,25.6152237 C78.5384079,35.7688553 78.5384079,52.2311447 68.3847763,62.3847763 Z M51.7176606,33.1924983 L63.3791674,45.0025419 C65.2613983,46.8886076 62.438052,49.7167062 60.5568191,47.8306405 L52.6965418,39.9476105 C52.3108097,39.5607619 51.9959717,39.6886838 51.9959717,40.2359801 L51.9959717,79.0001373 C51.9959717,80.1085704 51.1023307,81 49.9999687,81 C48.8899211,81 48.0039656,80.104631 48.0039656,79.0001373 L48.0039656,40.2359801 C48.0039656,39.6856885 47.6903097,39.5595764 47.3033955,39.9476105 L39.4431182,47.8306405 C37.5608873,49.7167062 34.738539,46.8886076 36.6207699,45.0025419 L48.2057466,33.2064691 C49.1789857,32.2154962 50.7490528,32.2115529 51.7176606,33.1924983 Z" transform="translate(50.000000, 49.500000) rotate(-270.000000) translate(-50.000000, -49.500000) "/></g></g><text x="0" y="115" fill="#000000" font-size="5px" font-weight="bold" font-family="'Helvetica Neue', Helvetica, Arial-Unicode, Arial, Sans-serif">Created by Landan Lloyd</text><text x="0" y="120" fill="#000000" font-size="5px" font-weight="bold" font-family="'Helvetica Neue', Helvetica, Arial-Unicode, Arial, Sans-serif">from the Noun Project</text></svg>